<svg width="32" height="32" viewBox="0 0 32 32" fill="none" xmlns="http://www.w3.org/2000/svg">
  <!-- Background circle -->
  <circle cx="16" cy="16" r="16" fill="#1E40AF"/>
  
  <!-- Robot head -->
  <rect x="8" y="8" width="16" height="12" rx="2" fill="#F3F4F6" stroke="#374151" stroke-width="1"/>
  
  <!-- Robot eyes -->
  <circle cx="12" cy="13" r="1.5" fill="#10B981"/>
  <circle cx="20" cy="13" r="1.5" fill="#10B981"/>
  
  <!-- Robot mouth -->
  <rect x="13" y="16" width="6" height="1" rx="0.5" fill="#374151"/>
  
  <!-- Bitcoin symbol -->
  <path d="M14 22 L14 24 M18 22 L18 24 M12 22 L20 22 M13 20 L19 20 M13 20 C13 19.4 13.4 19 14 19 L17 19 C17.6 19 18 19.4 18 20 M13 22 C13 22.6 13.4 23 14 23 L17 23 C17.6 23 18 22.6 18 22" 
        stroke="#F59E0B" stroke-width="1.2" fill="none" stroke-linecap="round"/>
  
  <!-- Antenna -->
  <line x1="16" y1="8" x2="16" y2="6" stroke="#374151" stroke-width="1"/>
  <circle cx="16" cy="5" r="1" fill="#EF4444"/>
  
  <!-- Side panels -->
  <rect x="6" y="11" width="2" height="4" rx="1" fill="#6B7280"/>
  <rect x="24" y="11" width="2" height="4" rx="1" fill="#6B7280"/>
</svg>